<svg xmlns="http://www.w3.org/2000/svg" viewBox="0 0 32 40" x="0px" y="0px"><title>Artboard 25</title><g><path d="M29,29.83H24.68a.81.81,0,0,1-.81-.81V16.81H8.14V29a.81.81,0,0,1-.81.81H3A.81.81,0,0,1,2.17,29V16.81H.81A.81.81,0,0,1,0,16V12.75a.81.81,0,0,1,.37-.68L15.56,2.3a.82.82,0,0,1,.88,0l15.19,9.76a.81.81,0,0,1,.37.68V16a.81.81,0,0,1-.81.81H29.83V29A.81.81,0,0,1,29,29.83ZM25.49,28.2H28.2V16a.81.81,0,0,1,.81-.81h1.36v-2L16,4,1.63,13.19v2H3A.81.81,0,0,1,3.8,16V28.2H6.51V16a.81.81,0,0,1,.81-.81H24.68a.81.81,0,0,1,.81.81Z"/><path d="M19.25,11.39H12.75a.81.81,0,0,1,0-1.63h6.51a.81.81,0,0,1,0,1.63Z"/><path d="M16,29.83H10.58A.81.81,0,0,1,9.76,29V24.14a.81.81,0,0,1,.81-.81H16a.81.81,0,0,1,.81.81V29A.81.81,0,0,1,16,29.83ZM11.39,28.2h3.8V24.95h-3.8Z"/><path d="M21.42,29.83H16a.81.81,0,0,1-.81-.81V24.14a.81.81,0,0,1,.81-.81h5.42a.81.81,0,0,1,.81.81V29A.81.81,0,0,1,21.42,29.83ZM16.81,28.2h3.8V24.95h-3.8Z"/><path d="M18.71,24.95H13.29a.81.81,0,0,1-.81-.81V19.25a.81.81,0,0,1,.81-.81h5.42a.81.81,0,0,1,.81.81v4.88A.81.81,0,0,1,18.71,24.95ZM14.1,23.32h3.8V20.07H14.1Z"/></g><text x="0" y="47" fill="#000000" font-size="5px" font-weight="bold" font-family="'Helvetica Neue', Helvetica, Arial-Unicode, Arial, Sans-serif">Created by Icon O' Foxy</text><text x="0" y="52" fill="#000000" font-size="5px" font-weight="bold" font-family="'Helvetica Neue', Helvetica, Arial-Unicode, Arial, Sans-serif">from the Noun Project</text></svg>